<svg width="300" height="300" viewBox="0 0 300 300" fill="none" xmlns="http://www.w3.org/2000/svg">
<path d="M232.625 187V114C232.622 110.8 231.777 107.656 230.175 104.886C228.574 102.115 226.272 99.8139 223.5 98.2137L159.625 61.7137C156.851 60.1119 153.704 59.2687 150.5 59.2687C147.296 59.2687 144.149 60.1119 141.375 61.7137L77.5 98.2137C74.7284 99.8139 72.4263 102.115 70.8247 104.886C69.2231 107.656 68.3783 110.8 68.375 114V187C68.3783 190.2 69.2231 193.344 70.8247 196.114C72.4263 198.885 74.7284 201.186 77.5 202.786L141.375 239.286C144.149 240.888 147.296 241.731 150.5 241.731C153.704 241.731 156.851 240.888 159.625 239.286L223.5 202.786C226.272 201.186 228.574 198.885 230.175 196.114C231.777 193.344 232.622 190.2 232.625 187Z" fill="#2196F3" stroke="#0D47A1" stroke-width="3" stroke-linecap="round" stroke-linejoin="round"/>
<path d="M77 66.7025V42.2975C76.9989 41.2276 76.716 40.1767 76.1797 39.2504C75.6434 38.3241 74.8725 37.5549 73.9444 37.0199L52.5556 24.8174C51.6265 24.2819 50.5727 24 49.5 24C48.4273 24 47.3735 24.2819 46.4444 24.8174L25.0556 37.0199C24.1275 37.5549 23.3566 38.3241 22.8203 39.2504C22.284 40.1767 22.0011 41.2276 22 42.2975V66.7025C22.0011 67.7724 22.284 68.8233 22.8203 69.7496C23.3566 70.6759 24.1275 71.4451 25.0556 71.9801L46.4444 84.1826C47.3735 84.7181 48.4273 85 49.5 85C50.5727 85 51.6265 84.7181 52.5556 84.1826L73.9444 71.9801C74.8725 71.4451 75.6434 70.6759 76.1797 69.7496C76.716 68.8233 76.9989 67.7724 77 66.7025Z" fill="#2196F3" stroke="#0D47A1" stroke-width="3" stroke-linecap="round" stroke-linejoin="round"/>
<path d="M276 82.8014V69.1986C275.999 68.6022 275.84 68.0165 275.538 67.5002C275.235 66.9839 274.801 66.5552 274.278 66.257L262.222 59.4556C261.699 59.1571 261.105 59 260.5 59C259.895 59 259.301 59.1571 258.778 59.4556L246.722 66.257C246.199 66.5552 245.765 66.9839 245.462 67.5002C245.16 68.0165 245.001 68.6022 245 69.1986V82.8014C245.001 83.3977 245.16 83.9835 245.462 84.4998C245.765 85.0161 246.199 85.4448 246.722 85.743L258.778 92.5444C259.301 92.8429 259.895 93 260.5 93C261.105 93 261.699 92.8429 262.222 92.5444L274.278 85.743C274.801 85.4448 275.235 85.0161 275.538 84.4998C275.84 83.9835 275.999 83.3977 276 82.8014Z" fill="#2196F3" stroke="#0D47A1" stroke-width="3" stroke-linecap="round" stroke-linejoin="round"/>
<path d="M110 269.502V247.498C109.999 246.533 109.742 245.586 109.254 244.75C108.767 243.915 108.066 243.222 107.222 242.739L87.7778 231.737C86.9332 231.254 85.9752 231 85 231C84.0248 231 83.0668 231.254 82.2222 231.737L62.7778 242.739C61.9341 243.222 61.2333 243.915 60.7457 244.75C60.2582 245.586 60.001 246.533 60 247.498V269.502C60.001 270.467 60.2582 271.414 60.7457 272.25C61.2333 273.085 61.9341 273.778 62.7778 274.261L82.2222 285.263C83.0668 285.746 84.0248 286 85 286C85.9752 286 86.9332 285.746 87.7778 285.263L107.222 274.261C108.066 273.778 108.767 273.085 109.254 272.25C109.742 271.414 109.999 270.467 110 269.502Z" fill="#2196F3" stroke="#0D47A1" stroke-width="3" stroke-linecap="round" stroke-linejoin="round"/>
<path d="M131.091 197.864C133.375 197.864 135.227 196.012 135.227 193.727C135.227 191.443 133.375 189.591 131.091 189.591C128.806 189.591 126.955 191.443 126.955 193.727C126.955 196.012 128.806 197.864 131.091 197.864Z" stroke="black" stroke-width="2" stroke-linecap="round" stroke-linejoin="round"/>
<path d="M176.591 197.864C178.875 197.864 180.727 196.012 180.727 193.727C180.727 191.443 178.875 189.591 176.591 189.591C174.306 189.591 172.455 191.443 172.455 193.727C172.455 196.012 174.306 197.864 176.591 197.864Z" stroke="black" stroke-width="2" stroke-linecap="round" stroke-linejoin="round"/>
<path d="M98 111H114.545L125.631 166.386C126.009 168.29 127.045 170.001 128.558 171.218C130.07 172.436 131.962 173.083 133.904 173.045H174.109C176.05 173.083 177.943 172.436 179.455 171.218C180.968 170.001 182.004 168.29 182.382 166.386L189 131.682H118.682" stroke="black" stroke-width="2" stroke-linecap="round" stroke-linejoin="round"/>
</svg>
